<?xml version="1.0" encoding="utf-8"?>
<!-- Generator: Adobe Illustrator 27.5.0, SVG Export Plug-In . SVG Version: 6.00 Build 0)  -->
<svg version="1.1" xmlns="http://www.w3.org/2000/svg" xmlns:xlink="http://www.w3.org/1999/xlink" x="0px" y="0px"
	 viewBox="0 0 750 500" style="enable-background:new 0 0 750 500;" xml:space="preserve">
<g id="BACKGROUND">
	<rect x="0" style="fill:#F2F2F2;" width="750" height="500"/>
</g>
<g id="OBJECTS">
	<g>
		<g>
			<line style="fill:none;stroke:#FF4F66;stroke-width:0.25;stroke-miterlimit:10;" x1="0" y1="265.968" x2="265.967" y2="0.001"/>
			<line style="fill:none;stroke:#FF4F66;stroke-width:0.25;stroke-miterlimit:10;" x1="0" y1="251.551" x2="251.55" y2="0.001"/>
			<line style="fill:none;stroke:#FF4F66;stroke-width:0.25;stroke-miterlimit:10;" x1="0" y1="237.133" x2="237.134" y2="0.001"/>
			<line style="fill:none;stroke:#FF4F66;stroke-width:0.25;stroke-miterlimit:10;" x1="0" y1="222.717" x2="222.716" y2="0.001"/>
			<line style="fill:none;stroke:#FF4F66;stroke-width:0.25;stroke-miterlimit:10;" x1="0" y1="208.3" x2="208.3" y2="0.001"/>
		</g>
		<polygon style="fill:#E5E5E5;" points="563.627,0 492.473,0 750.001,257.528 750.001,186.374 		"/>
		<polygon style="fill:#E5E5E5;" points="0.001,349.013 150.987,499.999 0.001,499.999 		"/>
		<polygon style="fill:#FF4F66;" points="335.776,500 277.721,441.946 219.666,500 		"/>
		<polygon style="fill:#4A4F52;" points="355.056,0 388.817,33.76 422.577,0 		"/>
		
			<rect x="605.469" y="186.562" transform="matrix(0.7071 -0.7071 0.7071 0.7071 27.7841 525.3257)" style="fill:#FF4F66;" width="85.123" height="85.123"/>
		
			<rect x="541.106" y="184.079" transform="matrix(0.7071 -0.7071 0.7071 0.7071 20.1134 456.3134)" style="fill:#4A4F52;" width="39.595" height="39.595"/>
		<polygon style="fill:#4A4F52;" points="750.001,170.356 750.001,101.577 648.425,0 579.646,0 		"/>
		<polygon style="fill:#FF4F66;" points="750.001,18.681 750.001,0 710.699,0 605.048,105.651 499.396,0 441.414,0 605.048,163.634 
					"/>
		<g style="opacity:0.6;">
			<line style="fill:none;stroke:#B9BCC3;stroke-width:0.5;stroke-miterlimit:10;" x1="750.001" y1="198.816" x2="551.184" y2="0"/>
			<line style="fill:none;stroke:#B9BCC3;stroke-width:0.5;stroke-miterlimit:10;" x1="750.001" y1="207.894" x2="542.107" y2="0"/>
			<line style="fill:none;stroke:#B9BCC3;stroke-width:0.5;stroke-miterlimit:10;" x1="750.001" y1="216.972" x2="533.029" y2="0"/>
			<line style="fill:none;stroke:#B9BCC3;stroke-width:0.5;stroke-miterlimit:10;" x1="750.001" y1="226.049" x2="523.953" y2="0"/>
			<line style="fill:none;stroke:#B9BCC3;stroke-width:0.5;stroke-miterlimit:10;" x1="750.001" y1="235.126" x2="514.875" y2="0"/>
		</g>
		<polygon style="fill:#4A4F52;" points="619.676,428.701 750.001,298.377 750.001,219.182 540.48,428.701 611.779,500 690.975,500 
					"/>
		<polygon style="fill:#4A4F52;" points="0.001,328.087 112.544,440.631 53.175,500 129.542,500 188.912,440.631 0.001,251.72 		"/>
		<linearGradient id="SVGID_1_" gradientUnits="userSpaceOnUse" x1="-4.8473" y1="134.5551" x2="94.1669" y2="35.5409">
			<stop  offset="0" style="stop-color:#FF4F66"/>
			<stop  offset="0.4242" style="stop-color:#C22B3F"/>
			<stop  offset="0.7625" style="stop-color:#E94258"/>
			<stop  offset="1" style="stop-color:#FF4F66"/>
		</linearGradient>
		<polygon style="fill:url(#SVGID_1_);" points="0.001,141.196 0.001,199.18 158.699,40.481 118.218,0 60.235,0 100.716,40.481 		
			"/>
		<polygon style="fill:#FF4F66;" points="696.243,500 750.001,446.243 750.001,373.771 623.771,500 		"/>
		<g>
			<circle style="fill:#FF4F66;" cx="40.334" cy="406.202" r="1.375"/>
			<circle style="fill:#FF4F66;" cx="40.334" cy="393.202" r="1.375"/>
			<circle style="fill:#FF4F66;" cx="40.334" cy="380.202" r="1.375"/>
			<circle style="fill:#FF4F66;" cx="40.334" cy="367.202" r="1.375"/>
			<circle style="fill:#FF4F66;" cx="40.334" cy="354.202" r="1.375"/>
			<circle style="fill:#FF4F66;" cx="40.334" cy="341.202" r="1.375"/>
			<circle style="fill:#FF4F66;" cx="40.334" cy="328.202" r="1.375"/>
			<circle style="fill:#FF4F66;" cx="53.334" cy="406.202" r="1.375"/>
			<circle style="fill:#FF4F66;" cx="53.334" cy="393.202" r="1.375"/>
			<circle style="fill:#FF4F66;" cx="53.334" cy="380.202" r="1.375"/>
			<circle style="fill:#FF4F66;" cx="53.334" cy="367.202" r="1.375"/>
			<circle style="fill:#FF4F66;" cx="53.334" cy="354.202" r="1.375"/>
			<circle style="fill:#FF4F66;" cx="53.334" cy="341.202" r="1.375"/>
			<circle style="fill:#FF4F66;" cx="53.334" cy="328.202" r="1.375"/>
			<circle style="fill:#FF4F66;" cx="66.335" cy="406.202" r="1.375"/>
			<circle style="fill:#FF4F66;" cx="66.335" cy="393.202" r="1.375"/>
			<circle style="fill:#FF4F66;" cx="66.335" cy="380.202" r="1.375"/>
			<circle style="fill:#FF4F66;" cx="66.335" cy="367.202" r="1.375"/>
			<circle style="fill:#FF4F66;" cx="66.335" cy="354.202" r="1.375"/>
			<circle style="fill:#FF4F66;" cx="66.335" cy="341.202" r="1.375"/>
			<circle style="fill:#FF4F66;" cx="66.335" cy="328.202" r="1.375"/>
			<circle style="fill:#FF4F66;" cx="79.335" cy="406.202" r="1.375"/>
			<circle style="fill:#FF4F66;" cx="79.335" cy="393.202" r="1.375"/>
			<circle style="fill:#FF4F66;" cx="79.335" cy="380.202" r="1.375"/>
			<circle style="fill:#FF4F66;" cx="79.335" cy="367.202" r="1.375"/>
			<circle style="fill:#FF4F66;" cx="79.335" cy="354.202" r="1.375"/>
			<circle style="fill:#FF4F66;" cx="79.335" cy="341.202" r="1.375"/>
			<circle style="fill:#FF4F66;" cx="79.335" cy="328.202" r="1.375"/>
			<circle style="fill:#FF4F66;" cx="92.335" cy="406.202" r="1.375"/>
			<circle style="fill:#FF4F66;" cx="92.335" cy="393.202" r="1.375"/>
			<circle style="fill:#FF4F66;" cx="92.335" cy="380.202" r="1.375"/>
			<circle style="fill:#FF4F66;" cx="92.335" cy="367.202" r="1.375"/>
			<circle style="fill:#FF4F66;" cx="92.335" cy="354.202" r="1.375"/>
			<circle style="fill:#FF4F66;" cx="92.335" cy="341.202" r="1.375"/>
			<circle style="fill:#FF4F66;" cx="92.335" cy="328.202" r="1.375"/>
		</g>
		<g>
			<circle style="fill:#4A4F52;" cx="609.001" cy="230.5" r="1.375"/>
			<circle style="fill:#4A4F52;" cx="622.001" cy="230.5" r="1.375"/>
			<circle style="fill:#4A4F52;" cx="635.001" cy="230.5" r="1.375"/>
			<circle style="fill:#4A4F52;" cx="648.001" cy="230.5" r="1.375"/>
			<circle style="fill:#4A4F52;" cx="609.001" cy="243.5" r="1.375"/>
			<circle style="fill:#4A4F52;" cx="622.001" cy="243.5" r="1.375"/>
			<circle style="fill:#4A4F52;" cx="635.001" cy="243.5" r="1.375"/>
			<circle style="fill:#4A4F52;" cx="648.001" cy="243.5" r="1.375"/>
			<circle style="fill:#4A4F52;" cx="609.001" cy="256.5" r="1.375"/>
			<circle style="fill:#4A4F52;" cx="622.001" cy="256.5" r="1.375"/>
			<circle style="fill:#4A4F52;" cx="635.001" cy="256.5" r="1.375"/>
			<circle style="fill:#4A4F52;" cx="648.001" cy="256.5" r="1.375"/>
			<circle style="fill:#4A4F52;" cx="609.001" cy="269.5" r="1.375"/>
			<circle style="fill:#4A4F52;" cx="622.001" cy="269.5" r="1.375"/>
			<circle style="fill:#4A4F52;" cx="635.001" cy="269.5" r="1.375"/>
			<circle style="fill:#4A4F52;" cx="648.001" cy="269.5" r="1.375"/>
		</g>
		<g>
			<path style="fill:#4A4F52;" d="M524.156,453.559c-0.537-0.537-0.537-1.407,0-1.944c0.537-0.538,1.407-0.538,1.944,0
				c0.538,0.537,0.538,1.407,0,1.944C525.563,454.096,524.693,454.096,524.156,453.559z"/>
			<path style="fill:#4A4F52;" d="M514.964,462.751c-0.537-0.537-0.537-1.407,0-1.944c0.537-0.537,1.407-0.537,1.944,0
				c0.537,0.537,0.538,1.407,0,1.944C516.371,463.288,515.501,463.288,514.964,462.751z"/>
			<path style="fill:#4A4F52;" d="M505.771,471.943c-0.537-0.537-0.537-1.407,0-1.944c0.537-0.538,1.407-0.537,1.944,0
				c0.537,0.537,0.538,1.407,0,1.944C507.179,472.48,506.309,472.48,505.771,471.943z"/>
			<path style="fill:#4A4F52;" d="M496.579,481.136c-0.537-0.537-0.537-1.407,0-1.944c0.537-0.537,1.407-0.537,1.944,0
				c0.537,0.537,0.538,1.407,0,1.944C497.986,481.673,497.116,481.673,496.579,481.136z"/>
			<circle style="fill:#4A4F52;" cx="515.936" cy="443.394" r="1.375"/>
			<path style="fill:#4A4F52;" d="M505.771,453.559c-0.537-0.537-0.537-1.407,0-1.944c0.537-0.538,1.407-0.537,1.944,0
				c0.537,0.537,0.538,1.407,0,1.944C507.179,454.096,506.309,454.096,505.771,453.559z"/>
			<path style="fill:#4A4F52;" d="M496.579,462.751c-0.537-0.537-0.537-1.407,0-1.944c0.537-0.537,1.407-0.537,1.944,0
				c0.537,0.537,0.538,1.407,0,1.944C497.986,463.288,497.116,463.288,496.579,462.751z"/>
			<path style="fill:#4A4F52;" d="M487.387,471.943c-0.537-0.537-0.537-1.407,0-1.944c0.537-0.538,1.407-0.537,1.944,0
				c0.537,0.537,0.538,1.407,0,1.944C488.794,472.48,487.924,472.48,487.387,471.943z"/>
			<path style="fill:#4A4F52;" d="M505.771,435.174c-0.537-0.537-0.537-1.407,0-1.944c0.537-0.538,1.407-0.538,1.944,0
				c0.538,0.537,0.538,1.407,0,1.944C507.179,435.711,506.309,435.711,505.771,435.174z"/>
			<circle style="fill:#4A4F52;" cx="497.551" cy="443.394" r="1.375"/>
			<path style="fill:#4A4F52;" d="M487.387,453.559c-0.537-0.537-0.537-1.407,0-1.944c0.537-0.538,1.407-0.537,1.944,0
				c0.537,0.537,0.538,1.407,0,1.944C488.794,454.096,487.924,454.096,487.387,453.559z"/>
			<path style="fill:#4A4F52;" d="M478.194,462.751c-0.537-0.537-0.537-1.407,0-1.944c0.537-0.537,1.407-0.537,1.944,0
				c0.537,0.537,0.537,1.407,0,1.944C479.602,463.288,478.731,463.288,478.194,462.751z"/>
			<path style="fill:#4A4F52;" d="M496.579,425.981c-0.537-0.537-0.537-1.407,0-1.944c0.537-0.537,1.407-0.537,1.944,0
				c0.537,0.537,0.537,1.407,0,1.944C497.986,426.519,497.116,426.519,496.579,425.981z"/>
			<path style="fill:#4A4F52;" d="M487.387,435.174c-0.537-0.537-0.537-1.407,0-1.944c0.537-0.538,1.407-0.537,1.944,0
				c0.537,0.537,0.538,1.407,0,1.944C488.794,435.711,487.924,435.711,487.387,435.174z"/>
			<path style="fill:#4A4F52;" d="M478.194,444.366c-0.537-0.537-0.537-1.407,0-1.944c0.537-0.538,1.407-0.537,1.944,0
				c0.537,0.537,0.537,1.407,0,1.944C479.602,444.903,478.731,444.903,478.194,444.366z"/>
			<path style="fill:#4A4F52;" d="M469.002,453.559c-0.537-0.537-0.537-1.407,0-1.944c0.537-0.538,1.407-0.537,1.944,0
				c0.537,0.537,0.538,1.407,0,1.944C470.409,454.096,469.539,454.096,469.002,453.559z"/>
		</g>
		<g>
			<line style="fill:none;stroke:#FF4F66;stroke-miterlimit:10;" x1="750.001" y1="310.903" x2="560.904" y2="500"/>
			<line style="fill:none;stroke:#FF4F66;stroke-miterlimit:10;" x1="750.001" y1="321.153" x2="571.154" y2="500"/>
			<line style="fill:none;stroke:#FF4F66;stroke-miterlimit:10;" x1="750.001" y1="331.403" x2="581.404" y2="500"/>
			<line style="fill:none;stroke:#FF4F66;stroke-miterlimit:10;" x1="750.001" y1="341.653" x2="591.654" y2="500"/>
			<line style="fill:none;stroke:#FF4F66;stroke-miterlimit:10;" x1="750.001" y1="351.903" x2="601.904" y2="500"/>
		</g>
		<g style="opacity:0.6;">
			<line style="fill:none;stroke:#B9BCC3;stroke-width:0.5;stroke-miterlimit:10;" x1="0" y1="234.405" x2="265.596" y2="500"/>
			<line style="fill:none;stroke:#B9BCC3;stroke-width:0.5;stroke-miterlimit:10;" x1="0" y1="222.279" x2="277.722" y2="500"/>
			<line style="fill:none;stroke:#B9BCC3;stroke-width:0.5;stroke-miterlimit:10;" x1="0" y1="210.152" x2="289.848" y2="500"/>
			<line style="fill:none;stroke:#B9BCC3;stroke-width:0.5;stroke-miterlimit:10;" x1="0" y1="198.026" x2="301.974" y2="500"/>
			<line style="fill:none;stroke:#B9BCC3;stroke-width:0.5;stroke-miterlimit:10;" x1="0" y1="185.9" x2="314.101" y2="500"/>
		</g>
		
			<rect x="62.786" y="203.587" transform="matrix(0.7071 -0.7071 0.7071 0.7071 -135.018 126.8402)" style="fill:#4A4F52;" width="45.636" height="45.636"/>
		<polygon style="fill:#FF4F66;" points="0.001,409.993 90.007,499.999 0.001,499.999 		"/>
		<polygon style="fill:#FF4F66;" points="343.555,0 275.672,0 127.851,147.82 0.001,19.971 0.001,87.854 127.851,215.703 		"/>
		<polygon style="fill:#4A4F52;" points="60.234,0 43.011,0 0.001,43.01 0.001,100.993 80.614,20.38 		"/>
		<g>
			<circle style="fill:#4A4F52;" cx="88.851" cy="95.57" r="1.375"/>
			<circle style="fill:#4A4F52;" cx="101.851" cy="95.57" r="1.375"/>
			<circle style="fill:#4A4F52;" cx="114.851" cy="95.57" r="1.375"/>
			<circle style="fill:#4A4F52;" cx="127.851" cy="95.57" r="1.375"/>
			<circle style="fill:#4A4F52;" cx="140.851" cy="95.57" r="1.375"/>
			<circle style="fill:#4A4F52;" cx="153.851" cy="95.57" r="1.375"/>
			<circle style="fill:#4A4F52;" cx="166.851" cy="95.57" r="1.375"/>
			<circle style="fill:#4A4F52;" cx="88.851" cy="108.57" r="1.375"/>
			<circle style="fill:#4A4F52;" cx="101.851" cy="108.57" r="1.375"/>
			<circle style="fill:#4A4F52;" cx="114.851" cy="108.57" r="1.375"/>
			<circle style="fill:#4A4F52;" cx="127.851" cy="108.57" r="1.375"/>
			<circle style="fill:#4A4F52;" cx="140.851" cy="108.57" r="1.375"/>
			<circle style="fill:#4A4F52;" cx="153.851" cy="108.57" r="1.375"/>
			<circle style="fill:#4A4F52;" cx="166.851" cy="108.57" r="1.375"/>
			<circle style="fill:#4A4F52;" cx="88.851" cy="121.57" r="1.375"/>
			<circle style="fill:#4A4F52;" cx="101.851" cy="121.57" r="1.375"/>
			<circle style="fill:#4A4F52;" cx="114.851" cy="121.57" r="1.375"/>
			<circle style="fill:#4A4F52;" cx="127.851" cy="121.57" r="1.375"/>
			<circle style="fill:#4A4F52;" cx="140.851" cy="121.57" r="1.375"/>
			<circle style="fill:#4A4F52;" cx="153.851" cy="121.57" r="1.375"/>
			<circle style="fill:#4A4F52;" cx="166.851" cy="121.57" r="1.375"/>
			<circle style="fill:#4A4F52;" cx="88.851" cy="134.57" r="1.375"/>
			<circle style="fill:#4A4F52;" cx="101.851" cy="134.57" r="1.375"/>
			<circle style="fill:#4A4F52;" cx="114.851" cy="134.57" r="1.375"/>
			<circle style="fill:#4A4F52;" cx="127.851" cy="134.57" r="1.375"/>
			<circle style="fill:#4A4F52;" cx="140.851" cy="134.57" r="1.375"/>
			<circle style="fill:#4A4F52;" cx="153.851" cy="134.57" r="1.375"/>
			<circle style="fill:#4A4F52;" cx="166.851" cy="134.57" r="1.375"/>
			<circle style="fill:#4A4F52;" cx="88.851" cy="147.57" r="1.375"/>
			<circle style="fill:#4A4F52;" cx="101.851" cy="147.57" r="1.375"/>
			<circle style="fill:#4A4F52;" cx="114.851" cy="147.57" r="1.375"/>
			<circle style="fill:#4A4F52;" cx="127.851" cy="147.57" r="1.375"/>
			<circle style="fill:#4A4F52;" cx="140.851" cy="147.57" r="1.375"/>
			<circle style="fill:#4A4F52;" cx="153.851" cy="147.57" r="1.375"/>
			<circle style="fill:#4A4F52;" cx="166.851" cy="147.57" r="1.375"/>
		</g>
	</g>
</g>
</svg>
