<?xml version="1.0" encoding="utf-8"?>
<!-- Generator: Adobe Illustrator 27.5.0, SVG Export Plug-In . SVG Version: 6.00 Build 0)  -->
<svg version="1.1" xmlns="http://www.w3.org/2000/svg" xmlns:xlink="http://www.w3.org/1999/xlink" x="0px" y="0px"
	 viewBox="0 0 752 423" style="enable-background:new 0 0 752 423;" xml:space="preserve">
<g id="BACKGROUND">
	<rect style="fill:#F2F2F2;" width="752" height="423.106"/>
</g>
<g id="OBJECTS">
	<g>
		<defs>
			<rect id="SVGID_1_" width="752" height="423.106"/>
		</defs>
		<clipPath id="SVGID_00000099660806452184379060000000595291058100325264_">
			<use xlink:href="#SVGID_1_"  style="overflow:visible;"/>
		</clipPath>
		<g style="clip-path:url(#SVGID_00000099660806452184379060000000595291058100325264_);">
			<g>
				<g>
					<path style="fill:#FFFFFF;" d="M44.819,103.774L21.133-109.672c-0.016-0.145,0.044-0.273,0.16-0.341
						c0.116-0.069,0.272-0.067,0.416,0.004l147.889,72.507c0.137,0.065,0.246,0.189,0.292,0.327
						c0.046,0.139,0.024,0.276-0.059,0.371L45.627,104.135c-0.108,0.122-0.298,0.15-0.477,0.07c-0.023-0.01-0.045-0.022-0.065-0.034
						C44.939,104.082,44.836,103.931,44.819,103.774z M22.095-108.931l23.486,211.655L168.742-37.033L22.095-108.931z"/>
				</g>
				<g>
					<path style="fill:#FFFFFF;" d="M45.069,104.161c-0.227-0.138-0.33-0.409-0.231-0.605c0.03-0.06,0.076-0.107,0.132-0.137
						l124.133-140.86c0.105-0.119,0.29-0.149,0.466-0.075l56.314,23.622c0.16,0.071,0.29,0.212,0.331,0.374
						c0.042,0.162-0.011,0.315-0.135,0.395L45.561,104.192c-0.134,0.087-0.32,0.074-0.476-0.021
						C45.079,104.167,45.073,104.163,45.069,104.161z M169.656-36.606l-121.71,138.11L224.839-13.459L169.656-36.606z"/>
				</g>
				<g>
					<path style="fill:#FFFFFF;" d="M-56.897,37.92c-0.119-0.117-0.178-0.274-0.158-0.415l23.144-159.695
						c0.03-0.21,0.227-0.33,0.456-0.278l55.046,12.417c0.221,0.051,0.407,0.247,0.431,0.464L37.151,26.748
						c0.022,0.203-0.104,0.364-0.303,0.388L-56.471,38.08c-0.106,0.013-0.22-0.016-0.32-0.077
						C-56.828,37.98-56.864,37.952-56.897,37.92z M21.175-109.295l-54.254-12.238L-56.074,37.138l92.298-10.824L21.175-109.295z"/>
				</g>
				<g>
					<path style="fill:#FFFFFF;" d="M-102.722,46.637c-0.227-0.139-0.33-0.409-0.232-0.605c0.064-0.127,0.197-0.192,0.345-0.183
						l45.856-8.631l93.319-10.944c0.233-0.028,0.483,0.14,0.564,0.377c0.079,0.236-0.042,0.452-0.273,0.484l-139.234,19.587
						c-0.111,0.015-0.228-0.014-0.328-0.076C-102.713,46.643-102.719,46.639-102.722,46.637z M-56.444,38.076l-26.966,5.076
						l81.746-11.5L-56.444,38.076z"/>
				</g>
				<g>
					<path style="fill:#FFFFFF;" d="M33.898,5.036l-74.224-138.475c-0.082-0.153-0.077-0.322,0.013-0.437
						c0.09-0.115,0.25-0.158,0.416-0.112l140.094,39.627c0.152,0.044,0.285,0.155,0.356,0.295c0.07,0.141,0.069,0.294-0.006,0.405
						L34.677,5.187c-0.078,0.118-0.227,0.172-0.388,0.141c-0.063-0.012-0.124-0.037-0.18-0.071
						C34.021,5.203,33.947,5.126,33.898,5.036z M-39.125-132.917L34.284,4.038l65.145-97.763L-39.125-132.917z"/>
				</g>
				<g>
					<path style="fill:#FFFFFF;" d="M34.092,5.247c-0.227-0.139-0.33-0.409-0.231-0.605c0.024-0.047,0.056-0.085,0.097-0.115
						L99.766-94.23c0.095-0.142,0.288-0.189,0.479-0.114l39.836,15.505c0.155,0.063,0.29,0.199,0.338,0.356
						c0.049,0.158,0.009,0.311-0.105,0.401L34.609,5.261c-0.132,0.104-0.332,0.098-0.5-0.005
						C34.103,5.253,34.097,5.249,34.092,5.247z M100.387-93.423L36.368,2.649l102.737-81.002L100.387-93.423z"/>
				</g>
				<g>
					<path style="fill:#FFFFFF;" d="M23.276,161.32l-152.042-98.788c-0.137-0.089-0.232-0.232-0.251-0.378
						c-0.019-0.146,0.038-0.278,0.154-0.348l26.047-15.894c0.041-0.026,0.089-0.042,0.14-0.049L36.557,26.275
						c0.128-0.018,0.267,0.022,0.388,0.118c0.116,0.092,0.192,0.222,0.207,0.355l8.556,77.111c0.007,0.062,0,0.122-0.021,0.176
						l-21.795,57.157c-0.04,0.107-0.131,0.182-0.25,0.207c-0.113,0.023-0.24-0.003-0.352-0.072
						C23.284,161.325,23.28,161.322,23.276,161.32z M36.323,27.209L-102.3,46.712l-25.458,15.534l150.963,98.087l21.602-56.654
						L36.323,27.209z"/>
				</g>
				<g>
					<path style="fill:#FFFFFF;" d="M23.276,161.32l-152.042-98.788c-0.137-0.089-0.232-0.232-0.251-0.378
						c-0.019-0.146,0.038-0.278,0.154-0.348l26.047-15.894c0.104-0.064,0.244-0.071,0.379-0.018l63.744,24.811
						c0.104,0.042,0.201,0.116,0.266,0.212l62.251,89.871c0.126,0.181,0.123,0.397-0.008,0.523c-0.127,0.123-0.342,0.13-0.525,0.018
						C23.284,161.325,23.28,161.323,23.276,161.32z M-102.404,46.773l-25.355,15.472l149.751,97.3l-61.03-88.108L-102.404,46.773z"
						/>
				</g>
				<g>
					<path style="fill:#FFFFFF;" d="M226.773,132.583L123.926,52.86c-0.121-0.094-0.2-0.23-0.213-0.367
						c-0.013-0.136,0.042-0.258,0.148-0.326l101.622-66.044c0.131-0.085,0.316-0.076,0.476,0.021
						c0.001,0.001,0.002,0.002,0.002,0.002c0.161,0.099,0.265,0.27,0.266,0.438l1.225,145.767c0.001,0.154-0.085,0.28-0.227,0.327
						c-0.123,0.042-0.271,0.02-0.399-0.058C226.808,132.609,226.79,132.597,226.773,132.583z M124.906,52.626l101.645,78.792
						l-1.21-144.063L124.906,52.626z"/>
				</g>
				<g>
					<path style="fill:#FFFFFF;" d="M226.581,132.318L186.681,11.685c-0.057-0.172-0.008-0.34,0.126-0.427l38.675-25.134
						c0.131-0.085,0.316-0.076,0.476,0.021c0.001,0.001,0.002,0.002,0.002,0.002c0.161,0.099,0.265,0.27,0.266,0.438l1.225,145.767
						c0.001,0.209-0.157,0.357-0.373,0.348c-0.088-0.003-0.175-0.032-0.252-0.079C226.714,132.552,226.622,132.443,226.581,132.318z
						 M187.623,11.866l38.912,117.647l-1.193-142.16L187.623,11.866z"/>
				</g>
				<g>
					<path style="fill:#FFFFFF;" d="M-159.737,134.871c-0.09-0.133-0.112-0.289-0.06-0.412l30.803-72.504
						c0.044-0.104,0.135-0.174,0.251-0.196c0.117-0.022,0.248,0.001,0.36,0.081L23.66,160.628c0.184,0.12,0.286,0.332,0.247,0.514
						c-0.039,0.182-0.21,0.29-0.413,0.261l-182.845-26.285c-0.072-0.01-0.141-0.036-0.204-0.075
						C-159.627,135-159.69,134.941-159.737,134.871z M-128.326,62.818l-30.394,71.541l180.417,25.935L-128.326,62.818z"/>
				</g>
				<g>
					<path style="fill:#FFFFFF;" d="M45.069,104.161c-0.227-0.138-0.33-0.409-0.231-0.605c0.044-0.087,0.12-0.145,0.212-0.17
						l78.811-51.219c0.146-0.095,0.366-0.071,0.53,0.059l102.847,79.723c0.169,0.13,0.25,0.337,0.202,0.508
						c-0.05,0.171-0.217,0.267-0.415,0.236l-181.741-28.45c-0.069-0.011-0.137-0.036-0.198-0.074
						C45.078,104.167,45.072,104.164,45.069,104.161z M124.208,53.08l-77.712,50.505l179.018,28.023L124.208,53.08z"/>
				</g>
				<g>
					<path style="fill:#FFFFFF;" d="M-56.897,37.92c-0.119-0.117-0.178-0.274-0.158-0.415l6.484-44.742
						c0.016-0.113,0.082-0.205,0.183-0.254c0.101-0.048,0.227-0.049,0.348-0.002l86.834,33.798c0.194,0.079,0.346,0.268,0.358,0.462
						c0.013,0.194-0.112,0.346-0.305,0.368L-56.471,38.08c-0.106,0.013-0.22-0.016-0.32-0.077
						C-56.829,37.98-56.864,37.952-56.897,37.92z M-49.748-6.512l-6.326,43.65l91.042-10.677L-49.748-6.512z"/>
				</g>
				<g>
					<path style="fill:#FFFFFF;" d="M23.113,161.161L-39.139,71.29c-0.146-0.21-0.115-0.462,0.07-0.571l22.649-13.32
						c0.111-0.066,0.258-0.068,0.397-0.006c0.137,0.063,0.253,0.179,0.305,0.316l39.602,103.191
						c0.082,0.213-0.002,0.421-0.196,0.487c-0.126,0.042-0.273,0.017-0.398-0.06C23.221,161.287,23.16,161.23,23.113,161.161z
						 M-38.168,71.292l60.037,86.673l-38.193-99.519L-38.168,71.292z"/>
				</g>
			</g>
		</g>
		<g style="clip-path:url(#SVGID_00000099660806452184379060000000595291058100325264_);">
			<g>
				<path style="fill:#FFFFFF;" d="M922.94,450.031c-0.023,0.18-0.147,0.344-0.328,0.438L733.247,547.77
					c-0.174,0.089-0.379,0.103-0.552,0.036c-0.172-0.067-0.294-0.205-0.319-0.373l-41.458-248.807
					c-0.036-0.215,0.084-0.437,0.301-0.56c0.218-0.123,0.489-0.12,0.682,0.006l230.823,151.505c0.069,0.046,0.123,0.104,0.161,0.171
					C922.933,449.834,922.952,449.931,922.94,450.031z M733.452,546.475l187.791-96.492L692.339,299.737L733.452,546.475z"/>
			</g>
		</g>
		<g style="clip-path:url(#SVGID_00000099660806452184379060000000595291058100325264_);">
			<g>
				<path style="fill:#FFFFFF;" d="M692.113,298.391l41.458,248.807c0.036,0.21-0.078,0.428-0.288,0.552l-68.146,40.352
					c-0.195,0.115-0.438,0.13-0.63,0.038c-0.191-0.092-0.299-0.275-0.283-0.474l26.689-289.159c0.026-0.271,0.277-0.498,0.584-0.527
					c0.246-0.024,0.465,0.084,0.565,0.264C692.087,298.289,692.105,298.338,692.113,298.391z M732.318,547.087l-40.635-243.865
					l-26.159,283.415L732.318,547.087z"/>
			</g>
		</g>
		<g style="clip-path:url(#SVGID_00000099660806452184379060000000595291058100325264_);">
			<g>
				<g>
					<path style="fill:#FFFFFF;" d="M653.862,541.899c-0.108,0.163-0.315,0.245-0.536,0.21l-187.888-29.368
						c-0.2-0.031-0.382-0.153-0.484-0.324c-0.103-0.171-0.112-0.373-0.022-0.521l78.713-137.801
						c0.094-0.164,0.282-0.256,0.493-0.243c0.212,0.014,0.414,0.132,0.53,0.309L653.843,541.33c0.094,0.145,0.119,0.31,0.075,0.453
						C653.905,541.823,653.886,541.863,653.862,541.899z M466.392,511.801l185.838,29.049L544.246,375.503L466.392,511.801z"/>
				</g>
				<g>
					<path style="fill:#FFFFFF;" d="M544.703,374.704L465.99,512.505c-0.113,0.199-0.362,0.288-0.614,0.224l-53.774-13.82
						c-0.214-0.055-0.393-0.211-0.467-0.407c-0.075-0.194-0.033-0.4,0.108-0.533l132.487-123.981
						c0.195-0.182,0.525-0.184,0.772-0.001c0.215,0.158,0.308,0.412,0.241,0.627C544.732,374.644,544.719,374.675,544.703,374.704z
						 M465.121,511.562l76.527-133.972L412.841,498.127L465.121,511.562z"/>
				</g>
			</g>
		</g>
		<g style="clip-path:url(#SVGID_00000099660806452184379060000000595291058100325264_);">
			<g>
				<path style="fill:#FFFFFF;" d="M692.119,298.51l-11.664,126.376c-0.022,0.232-0.211,0.437-0.468,0.507l-49.805,13.447
					c-0.219,0.059-0.448,0.009-0.594-0.13c-0.145-0.142-0.185-0.345-0.103-0.535l61.469-139.823c0.111-0.251,0.408-0.408,0.7-0.369
					c0.185,0.025,0.332,0.126,0.408,0.262C692.107,298.323,692.128,298.414,692.119,298.51z M679.285,424.493l11.3-122.434
					l-59.551,135.46L679.285,424.493z"/>
			</g>
		</g>
		<g style="clip-path:url(#SVGID_00000099660806452184379060000000595291058100325264_);">
			<g>
				<g>
					<path style="fill:#FFFFFF;" d="M350.145-159.156c0.128-0.129,0.326-0.183,0.526-0.147l209.45,38.175
						c0.192,0.035,0.364,0.15,0.46,0.308c0.096,0.158,0.108,0.341,0.025,0.49l-118.67,222.578c-0.102,0.193-0.333,0.296-0.58,0.261
						c-0.247-0.035-0.461-0.202-0.537-0.42l-90.78-260.753c-0.027-0.078-0.034-0.158-0.023-0.233
						C350.031-158.995,350.075-159.084,350.145-159.156z M559.171-120.226l-207.709-37.858l90.025,258.585L559.171-120.226z"/>
				</g>
				<g>
					<path style="fill:#FFFFFF;" d="M440.846,101.706l118.67-222.578c0.099-0.188,0.323-0.292,0.565-0.263l78.625,9.506
						c0.224,0.027,0.426,0.164,0.523,0.353c0.096,0.189,0.07,0.4-0.064,0.548L441.869,102.345c-0.186,0.199-0.523,0.226-0.785,0.063
						c-0.209-0.131-0.318-0.35-0.288-0.554C440.804,101.803,440.82,101.753,440.846,101.706z M560.443-120.02L444.13,98.137
						l193.376-208.839L560.443-120.02z"/>
				</g>
				<g>
					<path style="fill:#FFFFFF;" d="M440.914,101.608l86.227-93.122c0.159-0.171,0.434-0.218,0.68-0.117l47.69,19.672
						c0.21,0.087,0.361,0.266,0.391,0.465c0.028,0.201-0.063,0.386-0.244,0.487l-133.918,73.45c-0.241,0.132-0.572,0.075-0.78-0.133
						c-0.132-0.132-0.187-0.302-0.164-0.456C440.81,101.764,440.849,101.679,440.914,101.608z M527.829,9.51l-83.537,90.218
						l129.739-71.159L527.829,9.51z"/>
				</g>
			</g>
		</g>
		<g style="clip-path:url(#SVGID_00000099660806452184379060000000595291058100325264_);">
			<polygon style="fill:#313236;" points="227.967,432.375 174.92,288.398 78.727,444.981 			"/>
			<polygon style="fill:#FDD828;" points="174.92,288.398 283.367,430.628 227.967,432.375 			"/>
			
				<linearGradient id="SVGID_00000158021048494620782180000002489984971433870506_" gradientUnits="userSpaceOnUse" x1="-1168.1449" y1="1649.1851" x2="-1106.8652" y2="1649.1851" gradientTransform="matrix(-0.1909 0.9224 1.1883 -0.011 -2091.2285 1384.6394)">
				<stop  offset="0.1097" style="stop-color:#E695AA"/>
				<stop  offset="0.4272" style="stop-color:#E07891"/>
				<stop  offset="0.7782" style="stop-color:#DB5F7B"/>
				<stop  offset="0.9888" style="stop-color:#D95573"/>
			</linearGradient>
			<polygon style="fill:url(#SVGID_00000158021048494620782180000002489984971433870506_);" points="31.128,289.56 140.168,344.967 
				66.304,309.505 			"/>
			<polygon style="fill:#FFFFFF;" points="15.109,269.83 177.225,238.302 174.92,288.398 140.168,344.967 31.128,289.56 			"/>
			<polygon style="fill:#FCB72B;" points="222.317,350.56 336.598,319.355 283.367,430.628 			"/>
			<polygon style="fill:#313236;" points="336.598,319.355 260.133,400.156 283.367,430.628 			"/>
			<polygon style="fill:#FDD828;" points="177.225,238.302 15.403,205.367 15.109,269.83 			"/>
			<polygon style="fill:#E9E9EB;" points="174.92,288.398 336.598,319.355 222.317,350.56 			"/>
			
				<linearGradient id="SVGID_00000106862957117826875500000010552053416636887446_" gradientUnits="userSpaceOnUse" x1="55.6833" y1="327.5772" x2="140.1684" y2="327.5772">
				<stop  offset="0.179" style="stop-color:#FFFFFF"/>
				<stop  offset="1" style="stop-color:#E1E1E3"/>
			</linearGradient>
			<polygon style="fill:url(#SVGID_00000106862957117826875500000010552053416636887446_);" points="140.168,344.967 55.683,345.65 
				66.304,309.505 			"/>
			<polygon style="fill:#B6B6B8;" points="317.417,359.449 411.841,426.427 263.969,469.107 			"/>
		</g>
		<g style="clip-path:url(#SVGID_00000099660806452184379060000000595291058100325264_);">
			<polygon style="fill:#FFFFFF;" points="620.179,-19.214 682.585,119.428 731.029,-30.159 			"/>
			<polygon style="fill:#FDD828;" points="682.585,119.428 578.575,-17.966 620.179,-19.214 			"/>
			<polygon style="fill:#E9E9EB;" points="761.412,100.007 700.086,65.386 731.029,-30.159 770.074,-23.561 			"/>
			<polygon style="fill:#FCB72B;" points="762.507,141.696 700.086,65.386 761.412,100.007 			"/>
			<polygon style="fill:#313236;" points="776.193,-30.159 705.035,50.107 675.604,-41.074 			"/>
			<polygon style="fill:#FDD828;" points="705.035,50.107 646.357,-41.074 675.604,-41.074 			"/>
			<polygon style="fill:#313236;" points="762.507,157.777 688.606,167.507 682.585,119.428 700.086,65.386 762.507,141.696 			"/>
			<polygon style="fill:#E9E9EB;" points="744.292,119.428 688.606,167.507 762.507,157.777 762.507,141.696 			"/>
			<polygon style="fill:#B6B6B8;" points="637.128,59.38 555.583,88.452 578.575,-17.966 			"/>
			<polygon style="fill:#313236;" points="555.583,88.452 600.858,11.469 578.575,-17.966 			"/>
			<polygon style="fill:#FDD828;" points="688.606,167.507 762.507,194.871 762.507,157.777 			"/>
			<polygon style="fill:#FCB72B;" points="682.585,119.428 555.583,88.452 637.128,59.38 			"/>
		</g>
		<g style="clip-path:url(#SVGID_00000099660806452184379060000000595291058100325264_);">
			<polygon style="fill:#FFFFFF;" points="341.575,-57.812 178.125,6.85 258.49,-156.203 			"/>
			<polygon style="fill:#FDD828;" points="178.125,6.85 375.062,-23.255 341.575,-57.812 			"/>
			<polygon style="fill:#E9E9EB;" points="128.419,-72.767 207.159,-52.056 258.49,-156.203 220.802,-182.193 			"/>
			<polygon style="fill:#FCB72B;" points="93.921,-39.085 207.159,-52.056 128.419,-72.767 			"/>
			<polygon style="fill:#313236;" points="221.046,-192.594 215.367,-68.711 313.237,-120.594 			"/>
			<polygon style="fill:#FDD828;" points="215.367,-68.711 337.485,-97.029 313.237,-120.594 			"/>
			<polygon style="fill:#313236;" points="80.964,-25.753 134.394,41.86 178.125,6.85 207.159,-52.056 93.921,-39.085 			"/>
			<polygon style="fill:#E9E9EB;" points="126.965,-42.87 134.394,41.86 80.964,-25.753 93.921,-39.085 			"/>
			<polygon style="fill:#B6B6B8;" points="264.196,-6.308 308.378,83.5 375.062,-23.255 			"/>
			<polygon style="fill:#313236;" points="308.378,83.5 332.87,-16.805 375.062,-23.255 			"/>
			<polygon style="fill:#FDD828;" points="134.394,41.86 51.075,5.002 80.964,-25.753 			"/>
			<polygon style="fill:#FCB72B;" points="178.125,6.85 308.378,83.5 264.196,-6.308 			"/>
		</g>
		<g style="clip-path:url(#SVGID_00000099660806452184379060000000595291058100325264_);">
			<polygon style="fill:#313236;" points="-82.808,241.792 99.865,324.018 -93.273,386.567 			"/>
			<polygon style="fill:#FDD828;" points="99.865,324.018 -82.808,189.394 -82.808,242.029 			"/>
			<polygon style="fill:#E9E9EB;" points="74.789,425.796 30.09,346.615 -93.273,386.567 -84.754,436.979 			"/>
			<polygon style="fill:#313236;" points="128.617,427.21 30.09,346.615 74.789,425.796 			"/>
			<polygon style="fill:#313236;" points="-93.273,444.879 10.362,353.004 -107.367,315.004 			"/>
			<polygon style="fill:#FFFFFF;" points="10.362,353.004 -107.367,277.242 -107.367,315.004 			"/>
			<polygon style="fill:#FCB72B;" points="149.379,427.21 161.942,331.792 99.865,324.018 30.09,346.615 128.617,427.21 			"/>
			<polygon style="fill:#E9E9EB;" points="99.865,403.691 161.942,331.792 149.379,427.21 128.617,427.21 			"/>
			<polygon style="fill:#E9E9EB;" points="21.896,266.557 59.871,160.04 -81.359,190.553 			"/>
			<polygon style="fill:#FCB72B;" points="59.871,160.04 -41.634,219.738 -81.359,190.553 			"/>
			<polygon style="fill:#B6B6B8;" points="161.942,331.792 197.274,427.21 149.379,427.21 			"/>
			<polygon style="fill:#B6B6B8;" points="99.865,324.018 59.871,160.04 21.896,266.557 			"/>
			<polygon style="fill:#FFFFFF;" points="161.942,331.792 78.931,386.567 99.865,403.691 			"/>
			<polygon style="fill:#313236;" points="10.362,170.737 -84.754,90.774 -84.754,191.286 			"/>
		</g>
		<polygon style="clip-path:url(#SVGID_00000099660806452184379060000000595291058100325264_);fill:#FCB72B;" points="
			381.619,359.258 403.8,349.217 384.5,333.973 		"/>
		<polygon style="clip-path:url(#SVGID_00000099660806452184379060000000595291058100325264_);fill:#FCB72B;" points="
			44.592,141.732 66.774,131.691 47.473,116.447 		"/>
		<polygon style="clip-path:url(#SVGID_00000099660806452184379060000000595291058100325264_);fill:#FDD828;" points="
			473.184,374.511 470.783,392.495 488.549,383.503 		"/>
		<polygon style="clip-path:url(#SVGID_00000099660806452184379060000000595291058100325264_);fill:#313236;" points="
			445.159,332.626 463.632,315.685 467.909,339.47 		"/>
		<polygon style="clip-path:url(#SVGID_00000099660806452184379060000000595291058100325264_);fill:#313236;" points="
			591.375,267.328 596.626,291.837 573.952,283.479 		"/>
		<polygon style="clip-path:url(#SVGID_00000099660806452184379060000000595291058100325264_);fill:#313236;" points="63.848,83.5 
			78.554,77.997 78.451,94.925 		"/>
		<polygon style="clip-path:url(#SVGID_00000099660806452184379060000000595291058100325264_);fill:#313236;" points="
			144.753,76.043 159.722,77.78 152.237,64.323 		"/>
		<polygon style="clip-path:url(#SVGID_00000099660806452184379060000000595291058100325264_);fill:#FDD828;" points="
			104.703,100.501 114.636,88.415 119.424,102.514 		"/>
		<polygon style="clip-path:url(#SVGID_00000099660806452184379060000000595291058100325264_);fill:#FFFFFF;" points="
			520.854,309.052 532.44,312.101 522.687,319.306 		"/>
		<polygon style="clip-path:url(#SVGID_00000099660806452184379060000000595291058100325264_);fill:#FFFFFF;" points="
			93.136,135.904 104.722,138.952 94.969,146.157 		"/>
		<polygon style="clip-path:url(#SVGID_00000099660806452184379060000000595291058100325264_);fill:#FDD828;" points="
			666.724,323.314 674.002,306.695 654.443,310.426 		"/>
		<polygon style="clip-path:url(#SVGID_00000099660806452184379060000000595291058100325264_);fill:#313236;" points="
			627.128,387.485 606.046,373.927 627.961,363.743 		"/>
		<polygon style="clip-path:url(#SVGID_00000099660806452184379060000000595291058100325264_);fill:#FFFFFF;" points="
			571.682,360.109 561.39,353.976 572.755,349.748 		"/>
		<polygon style="clip-path:url(#SVGID_00000099660806452184379060000000595291058100325264_);fill:#FFFFFF;" points="
			678.612,195.07 668.32,188.937 679.684,184.709 		"/>
		<polygon style="clip-path:url(#SVGID_00000099660806452184379060000000595291058100325264_);fill:#FDD828;" points="
			650.653,234.97 632.582,233.349 642.334,250.71 		"/>
		<polygon style="clip-path:url(#SVGID_00000099660806452184379060000000595291058100325264_);fill:#313236;" points="
			733.935,229.643 727.777,253.941 711.158,236.397 		"/>
		<polygon style="clip-path:url(#SVGID_00000099660806452184379060000000595291058100325264_);fill:#FFFFFF;" points="
			679.424,267.875 676.879,279.583 669.259,270.15 		"/>
		<polygon style="clip-path:url(#SVGID_00000099660806452184379060000000595291058100325264_);fill:#E9E9EB;" points="
			445.988,391.118 434.01,391.371 441.407,381.763 		"/>
	</g>
</g>
</svg>
